<svg width="922" height="251" viewBox="0 0 922 251" fill="none" xmlns="http://www.w3.org/2000/svg">
    <circle cx="105.5" cy="64.5" r="50" fill="url(#paint0_linear_138_3)"/>
    <circle cx="228.5" cy="64.5" r="50" fill="url(#paint1_linear_138_3)"/>
    <circle cx="351.5" cy="64.5" r="50" fill="url(#paint2_linear_138_3)"/>
    <circle cx="474.5" cy="64.5" r="50" fill="url(#paint3_linear_138_3)"/>
    <circle cx="597.5" cy="64.5" r="50" fill="url(#paint4_linear_138_3)"/>
    <circle cx="720.5" cy="64.5" r="50" fill="url(#paint5_linear_138_3)"/>
    <circle cx="843.5" cy="64.5" r="50" fill="url(#paint6_linear_138_3)"/>
    <circle cx="105.5" cy="188.5" r="50" fill="url(#paint7_linear_138_3)"/>
    <circle cx="228.5" cy="188.5" r="50" fill="url(#paint8_linear_138_3)"/>
    <circle cx="351.5" cy="188.5" r="50" fill="url(#paint9_linear_138_3)"/>
    <circle cx="474.5" cy="188.5" r="50" fill="url(#paint10_linear_138_3)"/>
    <circle cx="597.5" cy="188.5" r="50" fill="url(#paint11_linear_138_3)"/>
    <circle cx="720.5" cy="188.5" r="50" fill="url(#paint12_linear_138_3)"/>
    <circle cx="843.5" cy="188.5" r="50" fill="url(#paint13_linear_138_3)"/>
    <path d="M0.666667 130C0.666667 132.946 3.05448 135.333 6 135.333C8.94552 135.333 11.3333 132.946 11.3333 130C11.3333 127.054 8.94552 124.667 6 124.667C3.05448 124.667 0.666667 127.054 0.666667 130ZM916 116.226L910.226 122L916 127.774L921.774 122L916 116.226ZM780.492 131.008L780.496 132.008L780.492 131.008ZM661.508 131.492L661.504 130.492L661.508 131.492ZM6 131H163.5V129H6V131ZM166.5 128V3H164.5V128H166.5ZM167.5 2H288V0H167.5V2ZM289 3V248H291V3H289ZM292 251H410V249H292V251ZM413 248V133.5H411V248H413ZM414 132.5H535V130.5H414V132.5ZM538 129.5V6H536V129.5H538ZM539 5H657.5V3H539V5ZM658.5 6V129.492H660.5V6H658.5ZM661.512 132.492L780.496 132.008L780.488 130.008L661.504 130.492L661.512 132.492ZM781.5 133.008V248H783.5V133.008H781.5ZM784.5 251H914V249H784.5V251ZM917 248V122H915V248H917ZM914 251C915.657 251 917 249.657 917 248H915C915 248.552 914.552 249 914 249V251ZM781.5 248C781.5 249.657 782.843 251 784.5 251V249C783.948 249 783.5 248.552 783.5 248H781.5ZM780.496 132.008C781.05 132.006 781.5 132.454 781.5 133.008H783.5C783.5 131.347 782.149 130.001 780.488 130.008L780.496 132.008ZM658.5 129.492C658.5 131.153 659.851 132.499 661.512 132.492L661.504 130.492C660.95 130.494 660.5 130.046 660.5 129.492H658.5ZM657.5 5C658.052 5 658.5 5.44772 658.5 6H660.5C660.5 4.34314 659.157 3 657.5 3V5ZM538 6C538 5.44772 538.448 5 539 5V3C537.343 3 536 4.34315 536 6H538ZM535 132.5C536.657 132.5 538 131.157 538 129.5H536C536 130.052 535.552 130.5 535 130.5V132.5ZM413 133.5C413 132.948 413.448 132.5 414 132.5V130.5C412.343 130.5 411 131.843 411 133.5H413ZM410 251C411.657 251 413 249.657 413 248H411C411 248.552 410.552 249 410 249V251ZM289 248C289 249.657 290.343 251 292 251V249C291.448 249 291 248.552 291 248H289ZM288 2C288.552 2 289 2.44772 289 3H291C291 1.34314 289.657 0 288 0V2ZM166.5 3C166.5 2.44772 166.948 2 167.5 2V0C165.843 0 164.5 1.34315 164.5 3H166.5ZM163.5 131C165.157 131 166.5 129.657 166.5 128H164.5C164.5 128.552 164.052 129 163.5 129V131Z" fill="#3ADE68"/>
    <defs>
        <linearGradient id="paint0_linear_138_3" x1="105.5" y1="14.5" x2="105.5" y2="114.5" gradientUnits="userSpaceOnUse">
            <stop stop-color="#062747"/>
            <stop offset="1" stop-color="#08345E" stop-opacity="0"/>
        </linearGradient>
        <linearGradient id="paint1_linear_138_3" x1="228.5" y1="14.5" x2="228.5" y2="114.5" gradientUnits="userSpaceOnUse">
            <stop stop-color="#062747"/>
            <stop offset="1" stop-color="#08345E" stop-opacity="0"/>
        </linearGradient>
        <linearGradient id="paint2_linear_138_3" x1="351.5" y1="14.5" x2="351.5" y2="114.5" gradientUnits="userSpaceOnUse">
            <stop stop-color="#062747"/>
            <stop offset="1" stop-color="#08345E" stop-opacity="0"/>
        </linearGradient>
        <linearGradient id="paint3_linear_138_3" x1="474.5" y1="14.5" x2="474.5" y2="114.5" gradientUnits="userSpaceOnUse">
            <stop stop-color="#062747"/>
            <stop offset="1" stop-color="#08345E" stop-opacity="0"/>
        </linearGradient>
        <linearGradient id="paint4_linear_138_3" x1="597.5" y1="14.5" x2="597.5" y2="114.5" gradientUnits="userSpaceOnUse">
            <stop stop-color="#062747"/>
            <stop offset="1" stop-color="#08345E" stop-opacity="0"/>
        </linearGradient>
        <linearGradient id="paint5_linear_138_3" x1="720.5" y1="14.5" x2="720.5" y2="114.5" gradientUnits="userSpaceOnUse">
            <stop stop-color="#062747"/>
            <stop offset="1" stop-color="#08345E" stop-opacity="0"/>
        </linearGradient>
        <linearGradient id="paint6_linear_138_3" x1="843.5" y1="14.5" x2="843.5" y2="114.5" gradientUnits="userSpaceOnUse">
            <stop stop-color="#062747"/>
            <stop offset="1" stop-color="#08345E" stop-opacity="0"/>
        </linearGradient>
        <linearGradient id="paint7_linear_138_3" x1="105.5" y1="138.5" x2="105.5" y2="238.5" gradientUnits="userSpaceOnUse">
            <stop stop-color="#062747"/>
            <stop offset="1" stop-color="#08345E" stop-opacity="0"/>
        </linearGradient>
        <linearGradient id="paint8_linear_138_3" x1="228.5" y1="138.5" x2="228.5" y2="238.5" gradientUnits="userSpaceOnUse">
            <stop stop-color="#062747"/>
            <stop offset="1" stop-color="#08345E" stop-opacity="0"/>
        </linearGradient>
        <linearGradient id="paint9_linear_138_3" x1="351.5" y1="138.5" x2="351.5" y2="238.5" gradientUnits="userSpaceOnUse">
            <stop stop-color="#062747"/>
            <stop offset="1" stop-color="#08345E" stop-opacity="0"/>
        </linearGradient>
        <linearGradient id="paint10_linear_138_3" x1="474.5" y1="138.5" x2="474.5" y2="238.5" gradientUnits="userSpaceOnUse">
            <stop stop-color="#062747"/>
            <stop offset="1" stop-color="#08345E" stop-opacity="0"/>
        </linearGradient>
        <linearGradient id="paint11_linear_138_3" x1="597.5" y1="138.5" x2="597.5" y2="238.5" gradientUnits="userSpaceOnUse">
            <stop stop-color="#062747"/>
            <stop offset="1" stop-color="#08345E" stop-opacity="0"/>
        </linearGradient>
        <linearGradient id="paint12_linear_138_3" x1="720.5" y1="138.5" x2="720.5" y2="238.5" gradientUnits="userSpaceOnUse">
            <stop stop-color="#062747"/>
            <stop offset="1" stop-color="#08345E" stop-opacity="0"/>
        </linearGradient>
        <linearGradient id="paint13_linear_138_3" x1="843.5" y1="138.5" x2="843.5" y2="238.5" gradientUnits="userSpaceOnUse">
            <stop stop-color="#062747"/>
            <stop offset="1" stop-color="#08345E" stop-opacity="0"/>
        </linearGradient>
    </defs>
</svg>